HIERARCHY
ROOT root
{
	OFFSET	0	13.1	24.9
	CHANNELS 6  Xposition Yposition Zposition Xrotation Yrotation Zrotation
	JOINT spine_1
	{
		OFFSET	0	9.99999	0
		CHANNELS 3  Xrotation Yrotation Zrotation
		JOINT spine_2
		{
			OFFSET	0	112	-10
			CHANNELS 3  Xrotation Yrotation Zrotation
			JOINT spine_3
			{
				OFFSET	0	206.5	19.3
				CHANNELS 3  Xrotation Yrotation Zrotation
				JOINT spine_4
				{
					OFFSET	0	110.4	14.6
					CHANNELS 3  Xrotation Yrotation Zrotation
					JOINT neck_1
					{
						OFFSET	0	71.8	-50.3
						CHANNELS 3  Xrotation Yrotation Zrotation
						JOINT neck_2
						{
							OFFSET	0	86.2	-25.8
							CHANNELS 3  Xrotation Yrotation Zrotation
							JOINT head_ee
							{
								OFFSET	0	179.8	-8.7
								CHANNELS 3  Xrotation Yrotation Zrotation
								End Site
								{
									OFFSET	1	0	0
								}
							}
						}
					}
					JOINT left_clavicle
					{
						OFFSET	-43.2	22.4	-70.8
						CHANNELS 3  Xrotation Yrotation Zrotation
						JOINT left_shoulder
						{
							OFFSET	-93.9	-5.79999	48.7
							CHANNELS 3  Xrotation Yrotation Zrotation
							JOINT left_elbow
							{
								OFFSET	-291.4	-30.8	15.2
								CHANNELS 3  Xrotation Yrotation Zrotation
								JOINT left_lowarm_twist
								{
									OFFSET	-110.7	-3.89999	13.6
									CHANNELS 3  Xrotation Yrotation Zrotation
									JOINT left_hand
									{
										OFFSET	-110.7	-3.89999	13.6
										CHANNELS 3  Xrotation Yrotation Zrotation
										JOINT left_ee
										{
											OFFSET	-80.8	-5.10001	12.1
											CHANNELS 3  Xrotation Yrotation Zrotation
											End Site
											{
												OFFSET	1	0	0
											}
										}
									}
								}
							}
						}
					}
					JOINT right_clavicle
					{
						OFFSET	43.2	22.4	-70.8
						CHANNELS 3  Xrotation Yrotation Zrotation
						JOINT right_shoulder
						{
							OFFSET	93.9	-5.79999	48.7
							CHANNELS 3  Xrotation Yrotation Zrotation
							JOINT right_elbow
							{
								OFFSET	291.4	-30.8	15.2
								CHANNELS 3  Xrotation Yrotation Zrotation
								JOINT right_lowarm_twist
								{
									OFFSET	110.7	-3.89999	13.6
									CHANNELS 3  Xrotation Yrotation Zrotation
									JOINT right_hand
									{
										OFFSET	110.7	-3.89999	13.6
										CHANNELS 3  Xrotation Yrotation Zrotation
										JOINT right_ee
										{
											OFFSET	80.8	-5.10001	12.1
											CHANNELS 3  Xrotation Yrotation Zrotation
											End Site
											{
												OFFSET	1	0	0
											}
										}
									}
								}
							}
						}
					}
				}
			}
		}
	}
	JOINT left_hip
	{
		OFFSET	-82.8	-127.5	0.300001
		CHANNELS 3  Xrotation Yrotation Zrotation
		JOINT left_knee
		{
			OFFSET	-28.2	-396.7	2.2
			CHANNELS 3  Xrotation Yrotation Zrotation
			JOINT left_ankle
			{
				OFFSET	-11.7	-411.3	35.4
				CHANNELS 3  Xrotation Yrotation Zrotation
				JOINT left_toes
				{
					OFFSET	0	-60	-88.6
					CHANNELS 3  Xrotation Yrotation Zrotation
					JOINT left_foot_ee
					{
						OFFSET	-22.5	-16.5	-42.2
						CHANNELS 3  Xrotation Yrotation Zrotation
						End Site
						{
							OFFSET	1	0	0
						}
					}
				}
			}
		}
	}
	JOINT right_hip
	{
		OFFSET	82.8	-127.5	0.300001
		CHANNELS 3  Xrotation Yrotation Zrotation
		JOINT right_knee
		{
			OFFSET	28.2	-396.7	2.2
			CHANNELS 3  Xrotation Yrotation Zrotation
			JOINT right_ankle
			{
				OFFSET	11.7	-411.3	35.4
				CHANNELS 3  Xrotation Yrotation Zrotation
				JOINT right_toes
				{
					OFFSET	0	-60	-88.6
					CHANNELS 3  Xrotation Yrotation Zrotation
					JOINT right_foot_ee
					{
						OFFSET	22.5	-16.5	-42.2
						CHANNELS 3  Xrotation Yrotation Zrotation
						End Site
						{
							OFFSET	1	0	0
						}
					}
				}
			}
		}
	}
}
MOTION
Frames: 5
Frame Time: 0.02
1105.01684986 718.766 -1631.83906634 -11.7273509575 52.1474029193 14.0706587057 2.42547 -0.178205 -1.50761 2.42673 -0.0819221 -1.51589 2.4287 0.174797 -1.50801 2.42553 -0.0655309 -1.51669 -1.36451 12.6966 -1.99731 -0.954602 24.4537 -0.619552 -0.0 0.0 -0.0 -0.782779 15.653 0.599337 -23.6195 -70.3971 87.5481 0.274963 -7.75662 0.0186406 9.84332 0.241436 -1.23267 -1.87099 -3.79228 -14.3456 -0.0 0.0 -0.0 11.0794 17.4598 -21.9944 -85.1547 67.4476 8.01785 0.642406 17.6527 -0.0997533 -2.96752 0.113964 -0.361737 -4.38494 -0.763871 30.3512 0.0 0.0 0.0 16.2064 12.5829 -8.8954 -46.0126 -0.892897 6.8186 -10.2084 -15.414 1.66788 -13.3763 0.0 0.0 -0.0 0.0 -0.0 27.2432 26.3645 -13.9797 -22.9088 -0.249764 -3.48329 10.3522 -11.5755 1.47276 37.6755 -0.0 -0.0 0.0 0.0 0.0 
1105.25258643 729.173 -1643.33785749 -10.9924579994 49.5076851933 13.4463357398 2.40918 -0.22547 -1.48002 2.41039 -0.130846 -1.49137 2.41364 0.122813 -1.49205 2.41055 -0.114343 -1.49272 -3.22344 12.8012 -1.09892 -2.9635 24.1723 0.723566 -0.0 0.0 -0.0 -0.167282 15.155 1.51556 -20.9524 -65.6983 89.8365 0.200164 -5.66281 0.00989956 8.1188 0.214506 -1.01404 -1.39182 -1.6215 -10.0669 -0.0 0.0 -0.0 11.5703 17.5132 -23.1059 -81.1734 67.0056 7.0653 0.696357 19.0322 -0.116733 -3.36391 0.130603 -0.4096 -4.38491 -2.56271 29.3039 0.0 0.0 0.0 19.3333 12.8347 -10.1522 -46.4843 -0.929946 6.88102 -11.1488 -17.9488 1.86262 -13.2154 0.0 0.0 -0.0 0.0 -0.0 24.4114 25.7538 -13.5253 -18.9107 -0.30701 -2.87261 5.71086 -14.0062 0.827365 37.363 -0.0 -0.0 0.0 0.0 0.0 
1095.7910367 732.914 -1658.12684725 -8.92624872118 48.1223864336 11.8467249326 2.35113 -0.19906 -1.61171 2.35257 -0.0961129 -1.62111 2.3551 0.180621 -1.61388 2.35148 -0.0764937 -1.62215 -7.57285 12.2748 -0.58342 -7.60231 23.2979 2.04835 -0.0 0.0 -0.0 -0.050637 15.8115 1.77798 -20.4356 -62.6076 90.1229 0.201028 -5.68709 0.009985 6.86949 0.190892 -0.856205 -1.01509 -0.143887 -6.8581 -0.0 0.0 -0.0 11.6028 17.9954 -23.1535 -80.8355 67.7566 10.0893 0.662109 18.159 -0.105811 -5.18968 0.211507 -0.628547 -4.93246 -4.42027 32.4194 0.0 0.0 0.0 26.1504 10.8789 -13.1852 -45.1159 -0.823894 6.69911 -18.0927 -20.0771 3.10151 -15.5857 0.0 0.0 -0.0 0.0 -0.0 20.1579 24.7914 -13.1617 -14.9125 -0.321537 -2.25947 4.88843 -15.1365 0.711442 36.9147 -0.0 -0.0 0.0 0.0 0.0 
1089.61713416 733.968 -1670.49538203 -8.69273917861 46.6305361437 11.5092489577 2.38635 -0.0282984 -1.50262 2.38761 0.0673637 -1.50138 2.38561 0.320651 -1.46829 2.38262 0.084765 -1.5005 -10.0423 12.2508 -0.365509 -10.227 23.3247 2.77607 -0.0 0.0 -0.0 -0.489674 17.6844 1.32176 -24.0822 -60.2361 87.1253 0.247825 -6.99907 0.0151556 5.53062 0.16177 -0.687658 -0.739591 -0.556944 -5.18764 -0.0 0.0 -0.0 11.9573 18.5071 -23.9338 -83.6631 67.7435 14.5145 0.640729 17.6095 -0.0992453 -6.51124 0.274408 -0.785387 -4.9863 -5.09813 32.4077 0.0 0.0 0.0 31.4189 10.3033 -14.4393 -44.4244 -0.771965 6.60625 -21.5608 -21.0194 3.73319 -17.2854 0.0 0.0 -0.0 0.0 -0.0 17.4367 24.666 -12.8789 -12.2596 -0.307558 -1.85271 3.98817 -16.1115 0.583141 35.3468 -0.0 -0.0 0.0 0.0 0.0 
1077.56026852 732.859 -1687.71416615 -9.8807546858 45.5354299648 12.1482004693 2.56676 -0.0741175 -1.5175 2.56804 0.0225836 -1.51914 2.56716 0.274778 -1.49426 2.56405 0.0353677 -1.51889 -11.6401 12.2879 -0.236866 -11.9292 23.4357 3.25565 -0.0 0.0 -0.0 -0.792762 18.8383 1.01291 -25.7157 -58.5031 85.4899 0.269655 -7.60866 0.0179309 5.66471 0.164864 -0.704508 -0.431103 -0.870975 -3.25416 -0.0 0.0 -0.0 12.5728 21.1672 -25.1657 -84.1324 68.0142 17.235 0.538564 14.9381 -0.070608 -7.76784 0.337565 -0.933153 -5.22802 -6.81774 33.1734 0.0 0.0 0.0 33.5912 7.85974 -13.9536 -43.9175 -0.734621 6.5378 -21.4792 -22.1457 3.76198 -18.6929 0.0 0.0 -0.0 0.0 -0.0 15.6088 24.4037 -13.1855 -10.6909 -0.290435 -1.61262 5.31907 -17.4305 0.777606 35.3352 -0.0 -0.0 0.0 0.0 0.0 
